# xmcd
#
# Track frame offsets:
#	150
#	10729
#	23025
#	33697
#	45094
#	56938
#	68425
#	81352
#	90609
#	103653
#	113815
#	124405
#	135887
#	145878
#	157199
#	167733
#	176956
#	185928
#	196671
#	209507
#	220491
#	231278
#	244468
#	256513
#	270276
#	281316
#	293321
#	305308
#	315553
#	329111
#
# Disc length: 4569 seconds
# Revision: 0
# Processed by: cddbd v1.5.2PL0 Copyright (c) Steve Scherf et al.
# Submitted via: dBpowerAMP V12.0
#
DISCID=b311d71e
DTITLE=Various Artist - Cosimo Matassa Story, Disc 1
DYEAR=1951
DGENRE=R&B
TTITLE0=Little Mr Midnight - Got a Brand New Baby
TTITLE1=Little Mr Midnight - Four O'Clock Blues
TTITLE2=Smiley Lewis - Don't Jive Me
TTITLE3=Dave Bartholomew - Tra-La-La
TTITLE4=Dave Bartholomew - Teejim
TTITLE5=James Wayne - Agreeable Woman
TTITLE6=James Wayne - Two Faced Woman
TTITLE7=Roy "Baldhead" Byrd - Rockin' with Fes
TTITLE8=Dave Bartholomew - Stormy Weather
TTITLE9=Dave Bartholomew - My Ding-A-Ling
TTITLE10=Fats Domino - Reeling and Rocking
TTITLE11=Lloyd Price - Lawdy Miss Clawdy
TTITLE12=Lloyd Price - Chee Koo Baby
TTITLE13=Shirley and Lee - Sweethearts
TTITLE14=Shirley and Lee - I'm Gone
TTITLE15=The Royal Kings - Teachin' and Preachin'
TTITLE16=The Royal Kings - Bouncin' the Boogie
TTITLE17=Sha-Weez - Early Sunday Morning
TTITLE18=Dave Bartholomew - Who Drank My Beer While I Was in the Rear
TTITLE19=Dave Bartholomew - Country Gal
TTITLE20=Shirley and Lee - Baby
TTITLE21=Clarence Garlow - New Bon Ton Roulay
TTITLE22=T-Bone Walker - Got No Use for You
TTITLE23=T-Bone Walker - Long Distance Blues
TTITLE24=Fat Man Matthews - I'm Thankful
TTITLE25=Fats Domino - Little School Girl
TTITLE26=The Hawks - I-Yi
TTITLE27=The Hawks - Candy Girl
TTITLE28=Lowell Fulson - Don't Leave Me Baby
TTITLE29=Guitar Slim - The Things That I Used to Do
EXTD=
EXTT0=
EXTT1=
EXTT2=
EXTT3=
EXTT4=
EXTT5=
EXTT6=
EXTT7=
EXTT8=
EXTT9=
EXTT10=
EXTT11=
EXTT12=
EXTT13=
EXTT14=
EXTT15=
EXTT16=
EXTT17=
EXTT18=
EXTT19=
EXTT20=
EXTT21=
EXTT22=
EXTT23=
EXTT24=
EXTT25=
EXTT26=
EXTT27=
EXTT28=
EXTT29=
PLAYORDER=
